<?xml version="1.0" encoding="utf-8"?>
<!-- Generator: Adobe Illustrator 19.1.0, SVG Export Plug-In . SVG Version: 6.00 Build 0)  -->
<svg version="1.1" xmlns="http://www.w3.org/2000/svg" xmlns:xlink="http://www.w3.org/1999/xlink" x="0px" y="0px"
	 viewBox="-104 64 170 23" style="enable-background:new -104 64 170 23;" xml:space="preserve">
<style type="text/css">
	.st0{display:none;}
	.st1{display:inline;}
	.st2{fill:#FFFFFF;}
	.st3{fill:#1F1F1F;}
	.st4{fill:#A51C30;}
	.st5{fill:none;stroke:#1F1F1F;stroke-width:4.254463e-02;}
	.st6{fill:none;stroke:#1F1F1F;stroke-width:4.467203e-02;}
</style>
<g id="Oracle" class="st0">
	<g class="st1">
		<path class="st2" d="M-33,78.7h10.7l-5.7-9.1L-38.3,86H-43l12.5-19.7C-29.9,65.5-29,65-28,65s1.9,0.5,2.4,1.2L-12.9,86h-4.7
			l-2.2-3.7h-10.9L-33,78.7z M15.9,82.3V65.2h-4V84c0,0.5,0.2,1,0.6,1.4S13.4,86,14,86h18.2l2.4-3.7H15.9z M-50.2,79.3
			c3.9,0,7-3.2,7-7c0-3.9-3.1-7-7-7h-17.5V86h4V68.9h13.2c1.9,0,3.4,1.5,3.4,3.4c0,1.9-1.5,3.4-3.4,3.4h-11.3l12,10.3h5.8l-8-6.7
			H-50.2z M-92.3,86c-5.8,0-10.4-4.7-10.4-10.4c0-5.7,4.7-10.4,10.4-10.4h12.1c5.7,0,10.4,4.7,10.4,10.4c0,5.7-4.7,10.4-10.4,10.4
			H-92.3z M-80.5,82.3c3.7,0,6.7-3,6.7-6.7c0-3.7-3-6.7-6.7-6.7H-92c-3.7,0-6.7,3-6.7,6.7c0,3.7,3,6.7,6.7,6.7H-80.5z M-4.6,86
			C-10.3,86-15,81.3-15,75.6c0-5.7,4.7-10.4,10.4-10.4H9.8l-2.4,3.7H-4.3c-3.7,0-6.7,3-6.7,6.7c0,3.7,3,6.7,6.7,6.7h14.4L7.8,86
			H-4.6z M44.3,82.3c-3.1,0-5.7-2.1-6.5-4.9h17.1l2.4-3.7H37.8c0.8-2.8,3.4-4.9,6.5-4.9H56l2.4-3.7H44c-5.7,0-10.4,4.7-10.4,10.4
			S38.3,85.9,44,85.9h12.3l2.3-3.7H44.3V82.3z"/>
		<path class="st2" d="M60.6,67.4c0-1,0.8-1.8,1.8-1.8s1.8,0.8,1.8,1.8s-0.8,1.8-1.8,1.8C61.4,69.3,60.6,68.4,60.6,67.4z M62.4,69.8
			c1.3,0,2.3-1,2.3-2.3s-1-2.3-2.3-2.3s-2.3,1-2.3,2.3C60.1,68.7,61.1,69.8,62.4,69.8z M62.2,66c0.4,0,0.5,0,0.7,0.1
			c0.5,0.2,0.5,0.6,0.5,0.7c0,0,0,0.1,0,0.2s-0.1,0.3-0.3,0.4c0,0,0,0-0.1,0.1l0.6,1.1H63l-0.5-1H62v1h-0.5V66H62.2z M62.3,67.2
			c0.2,0,0.3,0,0.4-0.2c0-0.1,0.1-0.1,0.1-0.2c0-0.1-0.1-0.3-0.2-0.3c-0.1,0-0.2,0-0.5,0H62v0.8h0.3V67.2z"/>
	</g>
</g>
<g id="Harvard">
	<g>
		<g>
			<g>
				<path class="st3" d="M-17.1,73.4c0-0.3-0.2-0.5-0.6-0.6v-0.2c0.2,0,0.9,0,1.1,0c0.2,0,0.9,0,1.1,0v0.2c-0.4,0.1-0.6,0.3-0.6,0.6
					V77c0,1.2,0.7,1.8,2,1.8c1.2,0,2.1-0.5,2.1-1.7v-3.7c0-0.3-0.2-0.5-0.6-0.6v-0.2c0.2,0,0.8,0,1,0c0.2,0,0.8,0,1,0v0.2
					c-0.4,0.1-0.6,0.3-0.6,0.6v3.5c0,1.6-1,2.5-3,2.5c-1.9,0-2.9-0.8-2.9-2.3V73.4z"/>
				<path class="st3" d="M-8.9,79.1c0.4-0.1,0.6-0.3,0.6-0.6v-5c0-0.4-0.2-0.6-0.6-0.7v-0.2c0.2,0,0.6,0,0.8,0c0.2,0,0.5,0,0.6,0
					l4.5,5.1v-4.4c0-0.3-0.2-0.5-0.6-0.6v-0.2c0.2,0,0.7,0,0.9,0c0.2,0,0.8,0,1,0v0.2c-0.4,0.1-0.6,0.3-0.6,0.6v6.1h-0.3
					c-0.2,0-0.5-0.2-1-0.7l-4-4.6v4.4c0,0.3,0.2,0.5,0.6,0.6v0.2c-0.2,0-0.7,0-0.9,0c-0.2,0-0.8,0-0.9,0V79.1z"/>
				<path class="st3" d="M26.6,77.8h0.2c0.1,0.4,0.3,0.7,0.6,0.9c0.3,0.2,0.8,0.3,1.2,0.3c0.9,0,1.5-0.4,1.5-1.1
					c0-0.7-0.7-1.1-1.6-1.5c-0.7-0.3-1.9-0.8-1.9-2.1c0-1.1,0.9-1.8,2.3-1.8c0.9,0,1.4,0.2,2,0.2l0,1.4h-0.2c-0.3-0.8-1-1.1-1.8-1.1
					c-0.9,0-1.3,0.5-1.3,1c0,0.7,0.8,1.1,1.6,1.5c1,0.4,2,0.9,2,2.1c0,1.1-0.9,1.9-2.5,1.9c-1,0-1.5-0.3-2.1-0.3L26.6,77.8z"/>
				<path class="st3" d="M46,76.5l-1.8-2.9c-0.3-0.5-0.6-0.8-0.9-0.9v-0.2c0.2,0,0.9,0,1.1,0c0.2,0,0.9,0,1.2,0v0.2
					c-0.2,0-0.3,0.2-0.3,0.3c0,0.2,0.1,0.3,0.2,0.5c0.1,0.2,1.4,2.2,1.4,2.2l1.3-2.2c0.1-0.2,0.2-0.4,0.2-0.6c0-0.1-0.1-0.2-0.3-0.3
					v-0.2c0.2,0,0.7,0,0.8,0c0.1,0,0.7,0,0.9,0v0.2c-0.5,0.2-0.8,0.6-1.1,1.1l-1.7,2.7 M47,76.3v2.3c0,0.2,0.2,0.5,0.6,0.6v0.2
					c-0.2,0-1,0-1.2,0c-0.2,0-0.9,0-1.1,0v-0.2c0.4-0.1,0.6-0.4,0.6-0.6v-2.2"/>
			</g>
			<path class="st3" d="M11.9,72.6h4.3c0.1,0,0.4,0,0.5-0.1h0.2l0,1.4h-0.2c-0.2-0.4-0.3-0.8-1.2-0.8h-1.9v2.4c0,0,1.3,0,1.4,0
				c0.2,0,0.5,0,0.6,0c0.3-0.1,0.5-0.2,0.5-0.5h0.2c0,0.2,0,0.7,0,0.8c0,0.1,0,0.6,0,0.9h-0.2c-0.1-0.3-0.2-0.5-0.5-0.5
				c-0.1,0-0.4-0.1-0.6-0.1c-0.1,0-1.4,0-1.4,0v2.8h2c0.9,0,1.1-0.4,1.4-0.9l0.2,0l-0.2,1.4c-0.7-0.1-1.1-0.1-1.8-0.1h-2.1
				c-0.2,0-1,0-1.2,0v-0.2c0.4-0.1,0.6-0.3,0.6-0.6v-5.1c0-0.3-0.2-0.5-0.6-0.6V72.6z"/>
			<path class="st3" d="M1,73.4c0-0.3-0.2-0.5-0.6-0.6v-0.2c0.2,0,1,0,1.2,0c0.2,0,0.9,0,1.2,0v0.2c-0.4,0.1-0.6,0.3-0.6,0.6v5.1
				c0,0.3,0.2,0.5,0.6,0.6v0.2c-0.2,0-1,0-1.2,0c-0.2,0-1,0-1.2,0v-0.2C0.8,79.1,1,78.9,1,78.5V73.4z"/>
			<path class="st3" d="M33.5,73.4c0-0.3-0.2-0.5-0.6-0.6v-0.2c0.2,0,1,0,1.2,0c0.2,0,0.9,0,1.2,0v0.2c-0.4,0.1-0.6,0.3-0.6,0.6v5.1
				c0,0.3,0.2,0.5,0.6,0.6v0.2c-0.2,0-1,0-1.2,0c-0.2,0-1,0-1.2,0v-0.2c0.4-0.1,0.6-0.3,0.6-0.6V73.4z"/>
			<path class="st3" d="M39.5,72.6c-2.4,0-2.7,0-3.2-0.1l0,1.4h0.2c0.2-0.6,0.5-0.8,1-0.8h1.5v5.3c0,0.4-0.2,0.5-0.6,0.6v0.2
				c0.2,0,1,0,1.2,0c0.2,0,1,0,1.2,0v-0.2c-0.4-0.1-0.6-0.3-0.6-0.6v-5.3h1.5c0.5,0,0.8,0.2,1,0.8h0.2l0-1.4
				C42.2,72.6,41.9,72.6,39.5,72.6z"/>
			<path class="st3" d="M20.7,78.5c0,0.3,0.2,0.5,0.6,0.6v0.2c-0.2,0-1,0-1.2,0c-0.2,0-0.9,0-1.2,0v-0.2c0.4-0.1,0.6-0.3,0.6-0.6
				v-5.1c0-0.3-0.2-0.5-0.6-0.6v-0.2c0.2,0,1,0,1.2,0c0.3,0,1.3-0.1,1.7-0.1c1.7,0,2.6,0.7,2.6,1.8c0,0.9-0.7,1.5-1.7,1.7
				c0,0,0.2,0.1,0.5,0.4c0.3,0.3,1.1,1.4,1.4,1.8c0.3,0.4,0.7,0.8,1.2,0.8v0.1c-0.2,0-0.6,0.1-0.8,0.1c-0.6,0-1-0.2-1.4-0.7
				c-0.4-0.4-1-1.4-1.4-1.8c-0.2-0.3-0.5-0.5-1.1-0.6c-0.1,0-0.2,0-0.3,0V78.5z M20.7,75.8c0.2,0,0.5,0,0.9,0c1.3,0,1.7-0.7,1.7-1.4
				c0-0.9-0.6-1.5-1.8-1.5c-0.2,0-0.6,0-0.8,0.1V75.8z"/>
			<path class="st3" d="M4.4,73.4c-0.2-0.3-0.4-0.6-0.8-0.6v-0.2c0.2,0,1.1,0,1.3,0c0.2,0,0.9,0,1.2,0v0.2c-0.2,0-0.5,0.2-0.5,0.4
				c0,0.2,0.1,0.4,0.3,0.8l1.8,3.9L9.3,74c0.1-0.3,0.2-0.6,0.2-0.8c0-0.2-0.2-0.4-0.5-0.4v-0.2c0.2,0,0.8,0,0.9,0c0.2,0,0.8,0,1,0
				v0.2c-0.4,0.1-0.7,0.3-0.9,0.9l-2.5,5.7H7.1L4.4,73.4z"/>
			<path class="st3" d="M-53.1,73.3c-0.2-0.3-0.4-0.6-0.8-0.6v-0.2c0.2,0,1.1,0,1.2,0c0.2,0,1,0,1.2,0v0.2c-0.2,0-0.5,0.2-0.5,0.4
				c0,0.2,0.1,0.4,0.3,0.8l1.8,3.9l1.7-3.9c0.1-0.3,0.2-0.6,0.2-0.8c0-0.2-0.2-0.4-0.5-0.4v-0.2c0.2,0,0.8,0,0.9,0c0.2,0,0.8,0,1,0
				v0.2c-0.4,0.1-0.7,0.3-0.9,0.9l-2.5,5.7h-0.6L-53.1,73.3z"/>
			<path class="st3" d="M-77,79c0.3-0.1,0.5-0.2,0.5-0.6v-5.2c0-0.3-0.2-0.5-0.5-0.6v-0.2c0.2,0,0.9,0,1.1,0c0.2,0,1,0,1.1,0v0.2
				c-0.3,0.1-0.6,0.2-0.6,0.6v2.2h4v-2.2c0-0.4-0.2-0.5-0.5-0.6v-0.2c0.2,0,0.9,0,1.1,0c0.2,0,0.9,0,1.1,0v0.2
				c-0.3,0.1-0.6,0.2-0.6,0.6v5.2c0,0.3,0.2,0.5,0.6,0.6v0.2c-0.2,0-0.9,0-1.1,0c-0.2,0-1,0-1.1,0V79c0.3-0.1,0.5-0.2,0.5-0.6V76h-4
				v2.5c0,0.4,0.2,0.5,0.6,0.6v0.2c-0.2,0-0.9,0-1.1,0c-0.2,0-0.9,0-1.1,0V79z"/>
			<path class="st3" d="M-30.9,79c0.4-0.1,0.6-0.2,0.6-0.6v-5.2c0-0.4-0.2-0.5-0.6-0.6v-0.2c0.2,0,1,0,1.2,0c0.3,0,1.3-0.1,2-0.1
				c2.5,0,3.9,1.3,3.9,3.4c0,2-1.5,3.4-4.1,3.4c-0.7,0-1.6-0.1-1.9-0.1c-0.2,0-0.9,0-1.1,0V79z M-29.2,78.7c0.2,0,0.7,0.1,1.1,0.1
				c2.1,0,3.1-1.2,3.1-2.9c0-1.7-1.1-3-3.1-3c-0.4,0-0.9,0-1.1,0.1V78.7z"/>
			<path class="st3" d="M-58.7,78.4c0,0.3,0.2,0.5,0.6,0.6v0.2c-0.2,0-1,0-1.2,0c-0.2,0-0.9,0-1.1,0V79c0.4-0.1,0.6-0.3,0.6-0.6
				v-5.1c0-0.3-0.2-0.5-0.6-0.6v-0.2c0.2,0,1,0,1.2,0c0.3,0,1.3-0.1,1.7-0.1c1.6,0,2.6,0.7,2.6,1.8c0,0.9-0.7,1.5-1.7,1.7
				c0,0,0.2,0.1,0.5,0.4c0.3,0.3,1.1,1.4,1.4,1.8c0.3,0.4,0.7,0.8,1.2,0.8v0.2c-0.2,0-0.6,0.1-0.8,0.1c-0.6,0-1-0.2-1.4-0.7
				c-0.4-0.4-1-1.4-1.4-1.9c-0.2-0.3-0.5-0.5-1.1-0.6c-0.1,0-0.2,0-0.3,0V78.4z M-58.7,75.7c0.2,0,0.5,0,0.9,0
				c1.3,0,1.7-0.7,1.7-1.4c0-0.9-0.6-1.5-1.7-1.5c-0.2,0-0.6,0-0.8,0.1V75.7z"/>
			<path class="st3" d="M-36.9,78.4c0,0.3,0.2,0.5,0.6,0.6v0.2c-0.2,0-1,0-1.2,0c-0.2,0-0.9,0-1.1,0V79c0.4-0.1,0.6-0.3,0.6-0.6
				v-5.1c0-0.3-0.2-0.5-0.6-0.6v-0.2c0.2,0,1,0,1.2,0c0.3,0,1.3-0.1,1.7-0.1c1.7,0,2.6,0.7,2.6,1.8c0,0.9-0.7,1.5-1.7,1.7
				c0,0,0.2,0.1,0.5,0.4c0.3,0.3,1.1,1.4,1.4,1.8c0.3,0.4,0.7,0.8,1.2,0.8v0.2c-0.2,0-0.6,0.1-0.8,0.1c-0.6,0-1-0.2-1.4-0.7
				c-0.4-0.4-1-1.4-1.4-1.9c-0.2-0.3-0.5-0.5-1.1-0.6c-0.1,0-0.2,0-0.3,0V78.4z M-36.9,75.7c0.2,0,0.5,0,0.9,0
				c1.3,0,1.7-0.7,1.7-1.4c0-0.9-0.6-1.5-1.7-1.5c-0.2,0-0.6,0-0.8,0.1V75.7z"/>
			<path class="st3" d="M-68.6,79c0.4-0.1,0.7-0.4,0.8-0.7l2.2-5.2c0.1-0.2,0.2-0.7,0.2-0.7h0.6c0,0,0.1,0.4,0.2,0.7l2.3,5.2
				c0.2,0.4,0.3,0.6,0.8,0.7l0,0.2c-0.3,0-1,0-1.2,0c-0.2,0-0.9,0-1.2,0l0-0.2c0.3-0.1,0.4-0.3,0.4-0.4c0-0.1-0.1-0.3-0.1-0.5
				L-64,77h-2.6l-0.5,1.1c-0.1,0.1-0.1,0.3-0.1,0.4c0,0.2,0.1,0.3,0.5,0.4l0,0.2c-0.2,0-0.8,0-1,0l-1,0L-68.6,79z M-64.3,76.5
				l-1.1-2.5l-1,2.5H-64.3z"/>
			<path class="st3" d="M-46.8,79c0.4-0.1,0.7-0.4,0.8-0.7l2.2-5.2c0.1-0.2,0.2-0.7,0.2-0.7h0.6c0,0,0.1,0.4,0.2,0.7l2.3,5.2
				c0.2,0.4,0.3,0.6,0.8,0.7l0,0.2c-0.3,0-1,0-1.2,0c-0.2,0-0.9,0-1.2,0l0-0.2c0.3-0.1,0.4-0.3,0.4-0.4c0-0.1-0.1-0.3-0.1-0.5
				l-0.5-1.1h-2.6l-0.5,1.1c-0.1,0.1-0.1,0.3-0.1,0.4c0,0.2,0.1,0.3,0.5,0.4l0,0.2c-0.2,0-0.8,0-1,0l-1,0L-46.8,79z M-42.4,76.5
				l-1.1-2.5l-1,2.5H-42.4z"/>
		</g>
		<path class="st4" d="M-100.7,66.9h15.4v5.7c0,2.6-1,8.1-7.6,12.2c0,0-7.2-2.9-7.8-12.2V66.9z"/>
		<path class="st3" d="M-93,84.8L-93,84.8c-0.1,0-7.3-3.1-7.8-12.3l0-5.7h15.6v5.7C-85.3,74.8-86,80.5-93,84.8L-93,84.8z M-100.7,67
			v5.6c0.5,8.7,7.1,11.8,7.7,12.1c6.8-4.2,7.6-9.8,7.6-12.1V67H-100.7z"/>
		<path class="st2" d="M-89.1,74.2c0,0-0.1,0.4-0.7,0l-2.1,0c0,0-0.3,0.1-0.3-0.2c0,0,0.1-0.6,0-0.6c0,0,0-0.2-0.3-0.2
			c0,0-0.4,0-0.4-0.3c0,0-0.1-0.4,0.5-0.4c0,0,0.2,0.1,0.2-0.1c0,0,0-1.6,0-1.7c0,0,0.1-0.1-0.2-0.2c0,0-0.4,0.1-0.5-0.2
			c0,0,0-0.4,0.2-0.4c0,0,0.3,0,0.4-0.1c0,0,0.1,0,0.1-0.2l0-0.5c0,0,0-0.1,0.2-0.1c0,0,0.4,0,0.4,0c0,0,0.1-0.1,0.1-0.2
			c0,0,0.2,0,0.2,0c0,0,0.3,0.2,1.4,0.1c0,0,0.2,0,0.2,0c0,0,0.2,0.2,0.3,0c0,0,0.2,0,0.7,0c0,0,0.6,0.2,1-0.2l0.1,0
			c0,0,0.2,0.3,0.3,0.2c0,0,0.4,0,0.4,0c0,0,0.1,0.2,0.1,0.7c0,0-0.1,0.2,0.3,0.2c0,0,0.4-0.1,0.4,0.3c0,0,0.1,0.4-0.6,0.4
			c0,0-0.1,0.1-0.1,0.2c0,0,0,1.4,0,1.5c0,0,0,0.2,0.3,0.2c0,0,0.4,0,0.4,0.3c0,0,0,0.5-0.5,0.4c0,0-0.2,0-0.2,0.1l0,0.6
			c0,0,0,0.3-0.3,0.2c0,0-1.9,0-2.1,0C-89,74.1-89.1,74.1-89.1,74.2"/>
		<path class="st2" d="M-93.1,76.2c0,0,0.1,0,0.1-0.1c0,0,0.3,0,0.3-0.1l0.8,0.1c0,0,0.8,0.1,1.2-0.2c0,0,0.1,0,0.2,0
			c0,0,0.2,0,0.2,0.1l0.5,0c0,0,0.3,0.1,0.2,0.3v0.2c0,0-0.1,0.4,0.1,0.5h0.4c0,0,0.3,0.1,0.3,0.3c0,0,0,0.2-0.2,0.3
			c0,0-0.3,0.1-0.3,0.1c0,0-0.1,0.1-0.1,0.2l0,1.6c0,0,0,0.2,0.2,0.1c0,0,0.4,0,0.5,0.2c0,0,0.1,0.4-0.1,0.4l-0.1,0.1l-0.3,0
			c0,0-0.1,0-0.1,0.2V81c0,0,0,0.3-0.2,0.3l-0.3,0c0,0-0.1,0.1-0.3,0c0,0-2.1,0-2.2,0l-0.2,0c0,0-0.3,0.2-0.5,0.1l-0.2-0.1
			c0,0-0.1,0-0.2,0c-0.1,0-2.3,0-2.3,0s-0.5,0-0.5-0.1c0,0-0.1-0.6,0-0.7c0,0,0-0.2-0.1-0.2c0,0-0.5,0-0.5-0.1c0,0-0.3-0.2-0.2-0.4
			c0,0,0.1-0.2,0.3-0.3c0,0,0.4,0.1,0.4,0c0,0,0-0.1,0-0.2c0,0,0-1.4,0-1.5c0,0,0-0.2-0.1-0.2c0,0-0.2,0-0.3,0c0,0-0.3,0-0.4-0.2
			c0,0-0.1-0.1,0-0.3c0,0,0.1-0.3,0.5-0.2c0,0,0.2,0.1,0.2-0.1l0-0.6c0,0-0.1-0.2,0.3-0.2c0,0,0.4,0.1,0.5-0.1c0,0,0.1-0.3,0.2-0.1
			c0,0,0.2,0.2,0.9,0.2c0,0,1.1-0.1,1.1,0C-93.5,76.1-93.3,76.1-93.1,76.2L-93.1,76.2z"/>
		<path class="st2" d="M-96.5,74.2c0,0-0.1,0.4-0.7,0l-2.1,0c0,0-0.3,0.1-0.3-0.2c0,0,0-0.6,0-0.6c0,0,0-0.2-0.3-0.2
			c0,0-0.4,0-0.4-0.3c0,0-0.1-0.4,0.5-0.4c0,0,0.2,0.1,0.2-0.1c0,0,0-1.6,0-1.7c0,0,0.1-0.1-0.2-0.2c0,0-0.4,0.1-0.5-0.2
			c0,0,0-0.4,0.2-0.4c0,0,0.3,0,0.4-0.1c0,0,0.1,0,0.1-0.2l0-0.5c0,0,0-0.1,0.2-0.1c0,0,0.4,0,0.4,0c0,0,0.1-0.1,0.1-0.2
			c0,0,0.2,0,0.2,0c0,0,0.3,0.2,1.4,0.1c0,0,0.2,0,0.2,0c0,0,0.2,0.2,0.3,0c0,0,0.2,0,0.7,0c0,0,0.6,0.2,1-0.2l0.1,0
			c0,0,0.2,0.3,0.3,0.2c0,0,0.4,0,0.4,0c0,0,0.1,0.2,0.1,0.7c0,0-0.1,0.2,0.3,0.2c0,0,0.4-0.1,0.4,0.3c0,0,0.1,0.4-0.6,0.4
			c0,0-0.1,0.1-0.1,0.2c0,0,0,1.4,0,1.5c0,0,0,0.2,0.3,0.2c0,0,0.4,0,0.4,0.3c0,0,0,0.5-0.5,0.4c0,0-0.2,0-0.2,0.1l0,0.6
			c0,0,0,0.3-0.3,0.2c0,0-1.9,0-2.1,0C-96.4,74.1-96.5,74.1-96.5,74.2"/>
		<path class="st3" d="M-89.1,74.2c0,0-0.1,0.4-0.7,0l-2.1,0c0,0-0.3,0.1-0.3-0.2c0,0,0.1-0.6,0-0.6c0,0,0-0.2-0.3-0.2
			c0,0-0.4,0-0.4-0.3c0,0-0.1-0.4,0.5-0.4c0,0,0.2,0.1,0.2-0.1c0,0,0-1.6,0-1.7c0,0,0.1-0.1-0.2-0.2c0,0-0.4,0.1-0.5-0.2
			c0,0,0-0.4,0.2-0.4c0,0,0.3,0,0.4-0.1c0,0,0.1,0,0.1-0.2l0-0.5c0,0,0-0.1,0.2-0.1c0,0,0.4,0,0.4,0c0,0,0.1-0.1,0.1-0.2
			c0,0,0.2,0,0.2,0c0,0,0.3,0.2,1.4,0.1c0,0,0.2,0,0.2,0c0,0,0.2,0.2,0.3,0c0,0,0.2,0,0.7,0c0,0,0.6,0.2,1-0.2l0.1,0
			c0,0,0.2,0.3,0.3,0.2c0,0,0.4,0,0.4,0c0,0,0.1,0.2,0.1,0.7c0,0-0.1,0.2,0.3,0.2c0,0,0.4-0.1,0.4,0.3c0,0,0.1,0.4-0.6,0.4
			c0,0-0.1,0.1-0.1,0.2c0,0,0,1.4,0,1.5c0,0,0,0.2,0.3,0.2c0,0,0.4,0,0.4,0.3c0,0,0,0.5-0.5,0.4c0,0-0.2,0-0.2,0.1l0,0.6
			c0,0,0,0.3-0.3,0.2c0,0-1.9,0-2.1,0C-89,74.1-89.1,74.1-89.1,74.2"/>
		<path class="st5" d="M-89.1,74.2c0,0-0.1,0.4-0.7,0l-2.1,0c0,0-0.3,0.1-0.3-0.2c0,0,0.1-0.6,0-0.6c0,0,0-0.2-0.3-0.2
			c0,0-0.4,0-0.4-0.3c0,0-0.1-0.4,0.5-0.4c0,0,0.2,0.1,0.2-0.1c0,0,0-1.6,0-1.7c0,0,0.1-0.1-0.2-0.2c0,0-0.4,0.1-0.5-0.2
			c0,0,0-0.4,0.2-0.4c0,0,0.3,0,0.4-0.1c0,0,0.1,0,0.1-0.2l0-0.5c0,0,0-0.1,0.2-0.1c0,0,0.4,0,0.4,0c0,0,0.1-0.1,0.1-0.2
			c0,0,0.2,0,0.2,0c0,0,0.3,0.2,1.4,0.1c0,0,0.2,0,0.2,0c0,0,0.2,0.2,0.3,0c0,0,0.2,0,0.7,0c0,0,0.6,0.2,1-0.2l0.1,0
			c0,0,0.2,0.3,0.3,0.2c0,0,0.4,0,0.4,0c0,0,0.1,0.2,0.1,0.7c0,0-0.1,0.2,0.3,0.2c0,0,0.4-0.1,0.4,0.3c0,0,0.1,0.4-0.6,0.4
			c0,0-0.1,0.1-0.1,0.2c0,0,0,1.4,0,1.5c0,0,0,0.2,0.3,0.2c0,0,0.4,0,0.4,0.3c0,0,0,0.5-0.5,0.4c0,0-0.2,0-0.2,0.1l0,0.6
			c0,0,0,0.3-0.3,0.2c0,0-1.9,0-2.1,0C-89,74.1-89.1,74.1-89.1,74.2z"/>
		<path class="st2" d="M-91.4,69.2c0,0,0,0.2,0,0.3c0,0.1,0,3.5,0,3.5s0,0.3-0.2,0.4c0,0-0.1,0-0.1-0.1l0-3.6
			C-91.7,69.6-91.7,69.1-91.4,69.2"/>
		<path class="st6" d="M-91.4,69.2c0,0,0,0.2,0,0.3c0,0.1,0,3.5,0,3.5s0,0.3-0.2,0.4c0,0-0.1,0-0.1-0.1l0-3.6
			C-91.7,69.6-91.7,69.1-91.4,69.2z"/>
		<path class="st2" d="M-91.8,73.4c0,0,0-3.4,0-3.5c0-0.1,0,0,0,0s0-0.6,0.1-0.8c0,0-0.1-0.2-0.3,0l0,0.5c0,0,0,0.3-0.3,0.3
			c0,0-0.3,0-0.4,0.1c0,0-0.1,0.3,0.2,0.2c0,0,0.4,0,0.5,0.2l0,1.8c0,0,0.1,0.3-0.2,0.3c0,0-0.4,0-0.4,0.2c0,0,0.1,0.2,0.4,0.1
			c0,0,0.3,0,0.2,0.3v0.5c0,0,0,0.2,0.2,0.2h1.9c0,0,0.1,0,0.1-0.1c0,0,0-0.1-0.2-0.1l-1.6,0C-91.6,73.7-91.8,73.8-91.8,73.4"/>
		<path class="st2" d="M-91.5,73.4c0,0,0,0.2,0.1,0.1h1.3l0.3,0.1c0,0,0.4-0.1,0-0.3c0,0-1.1,0-1.2,0c0,0-0.2-0.1-0.3-0.1
			C-91.2,73.3-91.4,73.2-91.5,73.4"/>
		<path class="st6" d="M-91.5,73.4c0,0,0,0.2,0.1,0.1h1.3l0.3,0.1c0,0,0.4-0.1,0-0.3c0,0-1.1,0-1.2,0c0,0-0.2-0.1-0.3-0.1
			C-91.2,73.3-91.4,73.2-91.5,73.4z"/>
		<path class="st2" d="M-89.3,73.6c0,0-0.2,0-0.2,0.3c0,0,0,0.2,0.3,0.2c0,0,0.2,0,0.2-0.3C-89.1,73.8-89.2,73.5-89.3,73.6"/>
		<path class="st2" d="M-89.2,73.5c0,0,0.1-0.1,0.2-0.1c0,0,1.2,0.1,1.5,0c0,0,0.2,0,0.2,0c0,0,0.2,0.1,0.2,0.2c0,0,0,0.1-0.2,0
			c0,0-1.4,0-1.5,0C-88.8,73.6-89.2,73.7-89.2,73.5"/>
		<path class="st6" d="M-89.2,73.5c0,0,0.1-0.1,0.2-0.1c0,0,1.2,0.1,1.5,0c0,0,0.2,0,0.2,0c0,0,0.2,0.1,0.2,0.2c0,0,0,0.1-0.2,0
			c0,0-1.4,0-1.5,0C-88.8,73.6-89.2,73.7-89.2,73.5z"/>
		<path class="st2" d="M-89,73.8c0,0,0-0.1,0.2-0.1l1.7,0c0,0,0.2,0.1,0.2-0.2c0,0,0.1-1.3,0.1-2.8c0-0.4,0-0.9,0-1.3
			c0,0,0-0.2-0.1-0.2c0,0,0-0.2,0.2-0.1c0,0,0.2,0,0.1,0.3l0,0.4c0,0,0,0.2,0.3,0.1c0,0,0.3,0,0.3,0.2c0,0,0.1,0.2-0.3,0.2h-0.3
			c0,0-0.1,0.1-0.1,0.2l0,1.8c0,0,0,0.3,0.3,0.3c0,0,0.3,0,0.4,0.1c0,0,0.2,0.3-0.2,0.3c0,0-0.3,0-0.3,0c0,0-0.1,0.1-0.1,0.6
			c0,0,0,0.3-0.2,0.3c0,0-1.7,0-1.9,0C-88.8,73.9-89,74-89,73.8"/>
		<path class="st2" d="M-91.2,69.1l0,3.9c0,0,0,0.2,0.3,0.2c0,0,0.4,0,0.4,0c0,0,0.2,0,0.8,0c0,0,0.2,0.1,0.2,0c0,0,0.1-3.2,0-3.8
			c0,0,0-0.3-0.2-0.3c0,0-0.9,0.1-1,0l-0.4-0.1C-91.1,69-91.3,69-91.2,69.1"/>
		<path class="st2" d="M-89.3,69.3c0,0,0,1.8,0,1.9l0,1.5l-0.1,0.5c0,0,0.1,0.1,0.1,0c0,0,0.4-0.1,0.6-0.1c0,0,0.8,0.1,1,0
			c0,0,0.1,0.1,0.2-0.1c0,0,0-3.4,0-3.5c0,0,0-0.5,0-0.5c0,0,0-0.1-0.2,0c0,0,0,0.1-1.2,0.1C-88.8,69.1-89.3,69.1-89.3,69.3"/>
		<path class="st2" d="M-87.3,69.2l0,3.8c0,0,0.1,0.3,0.3,0.3c0,0,0-0.1,0-0.2l0.1-3.6C-87,69.5-87.1,68.9-87.3,69.2"/>
		<path class="st6" d="M-87.3,69.2l0,3.8c0,0,0.1,0.3,0.3,0.3c0,0,0-0.1,0-0.2l0.1-3.6C-87,69.5-87.1,68.9-87.3,69.2z"/>
		<path class="st3" d="M-88.8,70.4c0-0.1,0.2-0.1,0.2-0.1l0.1,0c0.1,0,0.2,0,0.2,0c0.1,0.1-0.1,0.2-0.1,0.2l0,0.2c0,0.1,0,1.3,0,1.3
			c0,0.1,0.1,0.2,0.1,0.2c0,0.1-0.1,0.1-0.1,0.1l-0.4,0c-0.1,0-0.1-0.1-0.1-0.1c0.1-0.1,0.2-0.3,0.2-0.3v-1.2L-88.8,70.4z"/>
		<path class="st3" d="M-90.5,71.5l0,0.4l0.1,0.2c0.1,0.1,0,0.2,0,0.2l-0.4,0c-0.1,0,0-0.2,0-0.2c0.1-0.1,0.1-0.2,0.1-0.2l0-0.7
			l0-0.5c0-0.1-0.1-0.2-0.1-0.2c-0.1,0-0.1-0.1-0.1-0.1c0-0.1,0.2,0,0.2,0h0.5c0.5,0.2,0.4,0.5,0.4,0.5c0,0.4-0.3,0.5-0.3,0.5l0,0.2
			l0.4,0.6c0.1,0,0.1,0.1,0.1,0.1c-0.1,0.1-0.3,0-0.3,0l-0.4-0.7C-90.4,71.4-90.5,71.5-90.5,71.5 M-90.5,70.5c0,0.3,0,0.6,0,0.6
			c0.2,0.2,0.4-0.1,0.4-0.1c0.3-0.3,0-0.6,0-0.6C-90.2,70.4-90.5,70.4-90.5,70.5L-90.5,70.5z"/>
		<path class="st3" d="M-93.1,76.2c0,0,0.1,0,0.1-0.1c0,0,0.3,0,0.3-0.1l0.8,0.1c0,0,0.8,0.1,1.2-0.2c0,0,0.1,0,0.2,0
			c0,0,0.2,0,0.2,0.1l0.5,0c0,0,0.3,0.1,0.2,0.3v0.2c0,0-0.1,0.4,0.1,0.5h0.4c0,0,0.3,0.1,0.3,0.3c0,0,0,0.2-0.2,0.3
			c0,0-0.3,0.1-0.3,0.1c0,0-0.1,0.1-0.1,0.2l0,1.6c0,0,0,0.2,0.2,0.1c0,0,0.4,0,0.5,0.2c0,0,0.1,0.4-0.1,0.4l-0.1,0.1l-0.3,0
			c0,0-0.1,0-0.1,0.2V81c0,0,0,0.3-0.2,0.3l-0.3,0c0,0-0.1,0.1-0.3,0c0,0-2.1,0-2.2,0l-0.2,0c0,0-0.3,0.2-0.5,0.1l-0.2-0.1
			c0,0-0.1,0-0.2,0c-0.1,0-2.3,0-2.3,0s-0.5,0-0.5-0.1c0,0-0.1-0.6,0-0.7c0,0,0-0.2-0.1-0.2c0,0-0.5,0-0.5-0.1c0,0-0.3-0.2-0.2-0.4
			c0,0,0.1-0.2,0.3-0.3c0,0,0.4,0.1,0.4,0c0,0,0-0.1,0-0.2c0,0,0-1.4,0-1.5c0,0,0-0.2-0.1-0.2c0,0-0.2,0-0.3,0c0,0-0.3,0-0.4-0.2
			c0,0-0.1-0.1,0-0.3c0,0,0.1-0.3,0.5-0.2c0,0,0.2,0.1,0.2-0.1l0-0.6c0,0-0.1-0.2,0.3-0.2c0,0,0.4,0.1,0.5-0.1c0,0,0.1-0.3,0.2-0.1
			c0,0,0.2,0.2,0.9,0.2c0,0,1.1-0.1,1.1,0C-93.5,76.1-93.3,76.1-93.1,76.2L-93.1,76.2z"/>
		<path class="st5" d="M-93.1,76.2c0,0,0.1,0,0.1-0.1c0,0,0.3,0,0.3-0.1l0.8,0.1c0,0,0.8,0.1,1.2-0.2c0,0,0.1,0,0.2,0
			c0,0,0.2,0,0.2,0.1l0.5,0c0,0,0.3,0.1,0.2,0.3v0.2c0,0-0.1,0.4,0.1,0.5h0.4c0,0,0.3,0.1,0.3,0.3c0,0,0,0.2-0.2,0.3
			c0,0-0.3,0.1-0.3,0.1c0,0-0.1,0.1-0.1,0.2l0,1.6c0,0,0,0.2,0.2,0.1c0,0,0.4,0,0.5,0.2c0,0,0.1,0.4-0.1,0.4l-0.1,0.1l-0.3,0
			c0,0-0.1,0-0.1,0.2V81c0,0,0,0.3-0.2,0.3l-0.3,0c0,0-0.1,0.1-0.3,0c0,0-2.1,0-2.2,0l-0.3,0c0,0-0.3,0.2-0.5,0.1l-0.2-0.1
			c0,0-0.1,0-0.2,0c0,0-2.3,0-2.3,0s-0.5,0-0.5-0.1c0,0-0.1-0.6,0-0.7c0,0,0-0.2-0.1-0.2c0,0-0.5,0-0.5-0.1c0,0-0.3-0.2-0.2-0.4
			c0,0,0.1-0.2,0.3-0.3c0,0,0.4,0.1,0.4,0c0,0,0-0.1,0-0.2c0,0,0-1.4,0-1.5c0,0,0-0.2-0.1-0.2c0,0-0.2,0-0.3,0c0,0-0.3,0-0.4-0.2
			c0,0-0.1-0.1,0-0.3c0,0,0.1-0.3,0.5-0.2c0,0,0.2,0.1,0.2-0.1l0-0.6c0,0-0.1-0.2,0.3-0.2c0,0,0.4,0.1,0.5-0.1c0,0,0.1-0.3,0.2-0.1
			c0,0,0.2,0.2,0.9,0.2c0,0,1.1-0.1,1.1,0C-93.5,76-93.3,76.1-93.1,76.2L-93.1,76.2z"/>
		<path class="st2" d="M-92.8,81c0,0,0.1-0.1,0.2,0c0.1,0,1.6,0,1.6,0s0.6,0,0.7,0l0.1,0c0,0,0.1-0.1,0.1-0.2c0-0.1,0-0.4,0-0.4
			l0-0.1c0,0,0-0.1,0-3.4c0,0,0-0.3-0.1-0.4c0,0,0-0.1,0.1-0.1c0.1,0,0,0,0,0s0.2-0.1,0.3,0c0,0,0.1,0.3,0,0.5c0,0,0,0.4,0.2,0.4
			c0,0,0.1,0.1,0.2,0c0,0,0.3,0,0.3,0.1c0,0,0,0.2-0.2,0.2l-0.3,0c0,0-0.2,0-0.2,0.3c0,0.2,0,1.9,0,1.9s0,0.2,0.3,0.2
			c0,0,0.4,0,0.4,0.1c0,0,0.1,0.2-0.2,0.3c0,0-0.5,0-0.5,0.1c0,0,0,0.3-0.1,0.4c0,0,0.1,0.3,0,0.3c0,0,0,0.2-0.4,0.1
			c0,0-2.1,0-2.5,0C-92.6,81.1-92.8,81.1-92.8,81"/>
		<path class="st2" d="M-93.2,80.7c0,0,0.2,0,0.2,0.2c0,0.2,0,0.3-0.1,0.3c-0.1,0-0.3,0-0.3-0.2C-93.4,81-93.3,80.8-93.2,80.7"/>
		<path class="st2" d="M-92.9,80.6c0,0,0.2-0.1,0.3-0.1c0,0,1.1,0.1,1.5,0c0.3-0.1,0.1,0,0.1,0s0.3,0,0.4-0.1c0,0,0.1,0,0.1,0.1
			l0.2,0.2c0,0,0,0.1-0.2,0.1c0,0-2,0-2.1,0C-92.6,80.8-93,80.8-92.9,80.6"/>
		<path class="st6" d="M-92.9,80.6c0,0,0.2-0.1,0.3-0.1c0,0,1.1,0.1,1.5,0c0.3-0.1,0.1,0,0.1,0s0.3,0,0.4-0.1c0,0,0.1,0,0.1,0.1
			l0.2,0.2c0,0,0,0.1-0.2,0.1c0,0-2,0-2.1,0C-92.6,80.8-93,80.8-92.9,80.6z"/>
		<path class="st2" d="M-95.9,76.3c0,0,0.1,0,0.1,0.1l0,3.7c0,0,0,0.2-0.2,0.4c0,0-0.1,0.1-0.1-0.1l0.1-3.7
			C-96.1,76.7-96,76.4-95.9,76.3"/>
		<path class="st6" d="M-95.9,76.3c0,0,0.1,0,0.1,0.1l0,3.7c0,0,0,0.2-0.2,0.4c0,0-0.1,0.1-0.1-0.1l0.1-3.7
			C-96.1,76.7-96,76.4-95.9,76.3z"/>
		<path class="st2" d="M-96.1,76.3c0,0-0.1,0.3-0.1,0.3l0,0.8c0,0,0,0.5,0,0.6c0,0.1,0,1.6,0,1.6s0,0.3,0,0.4v0.7c0,0,0,0.3,0.2,0.2
			c0,0,2.2,0,2.3,0c0,0,0.2,0,0.1,0.1c0,0,0,0.1-0.1,0.1c0,0-1,0.1-2,0.1c0,0-0.6,0-0.7,0c0,0-0.1,0-0.1-0.4c0,0,0-0.3,0-0.4
			c0,0,0-0.2-0.3-0.2c0,0-0.4,0.1-0.4-0.2c0,0,0.1-0.2,0.5-0.2c0,0,0.3,0,0.2-0.2l0-1.8c0,0,0-0.3-0.2-0.3c0,0-0.2,0-0.3,0
			c0,0-0.4,0-0.3-0.2c0,0,0.1-0.2,0.5-0.2c0,0,0.3,0,0.3-0.3c0,0,0-0.6,0.1-0.6C-96.3,76.3-96,76.3-96.1,76.3"/>
		<path class="st2" d="M-95.7,80.4c0,0,0.2,0.2,0.5,0.2l1.7,0c0,0,0.2,0,0.2,0.1c0,0,0,0.1-0.2,0.1l-2,0l-0.2,0
			C-95.9,80.7-96,80.7-95.7,80.4L-95.7,80.4z"/>
		<path class="st6" d="M-95.7,80.4c0,0,0.2,0.2,0.5,0.2l1.7,0c0,0,0.2,0,0.2,0.1c0,0,0,0.1-0.2,0.1l-2,0l-0.2,0
			C-95.9,80.7-96,80.7-95.7,80.4L-95.7,80.4z"/>
		<path class="st2" d="M-90.5,80.2c0,0,0.1,0.3,0.2,0.3c0,0,0.1,0.2,0.1-0.1l0-3.5c0,0,0-0.1,0-0.3l-0.1-0.3c0,0-0.2-0.1-0.2,0.1
			L-90.5,80.2L-90.5,80.2z"/>
		<path class="st6" d="M-90.5,80.2c0,0,0.1,0.3,0.2,0.3c0,0,0.1,0.2,0.1-0.1l0-3.5c0,0,0-0.1,0-0.3l-0.1-0.3c0,0-0.2-0.1-0.2,0.1
			L-90.5,80.2L-90.5,80.2z"/>
		<path class="st2" d="M-93.2,78.5c0,0,0,0.3,0,0.6c0,0.2,0.1,0.9,0,1.2c0,0,0,0.1-0.3,0c0,0-1.6,0-1.6,0c0,0-0.4,0-0.5-0.2
			c0,0,0.1-1.7,0-1.7c0,0,0-0.9,0-1c0,0,0-0.8,0-0.9c0,0,0-0.2,0-0.3c0,0,0-0.1,0.2,0c0,0,0.1,0.1,0.5,0.1c0,0,0.3,0,0.6,0
			c0,0,0.6,0,0.8,0c0,0,0.2,0,0.3,0.2l0,0.8l0.1,0.2l0.1-0.1l0-0.2l0-0.8c0,0,0-0.1,0.2-0.2c0,0,0.3,0,0.4,0c0,0,0.7,0.1,0.9,0
			c0.2,0,0.2,0.1,0.8-0.2c0,0,0.1,0,0.1,0.1c0,0-0.1,1,0,1.2c0,0,0,1.9,0,2l0,0.6c0,0,0,0.3-0.4,0.3c0,0,0.3,0-1.4,0
			c0,0-0.3,0-0.6,0.1c0,0-0.1,0-0.1-0.2c0,0,0-0.6,0-1.1l0-0.6L-93.2,78.5z"/>
		<path class="st3" d="M-94.4,77.7c0,0,0,0.9,0,1l0,0.2c0,0,0,0.1,0.1,0.2c0,0,0.1,0.2-0.1,0.2c0,0-0.3,0-0.4,0c0,0-0.2,0,0-0.2
			c0,0,0.1-0.1,0-0.3c0,0,0-1,0-1.1c0,0,0-0.1-0.1-0.2l-0.1,0l-0.2,0.2c0,0,0,0.2-0.1,0v-0.1l0.1-0.3l0.1,0c0,0,0.1,0.1,0.2,0.1h0.6
			l0.2-0.1c0,0,0.1,0,0.1,0.1c0,0,0,0.3-0.1,0.3c0,0-0.1,0-0.1-0.2C-94.2,77.5-94.3,77.4-94.4,77.7"/>
		<path class="st3" d="M-91.6,77.4c0,0-0.5,0-0.5,0.5c0,0-0.1,0.3,0.5,0.6c0,0,0.4,0.2,0.4,0.4c0,0-0.1,0.4-0.5,0.2
			c0,0-0.2-0.1-0.2-0.2c0,0-0.1-0.1-0.1-0.1c0,0-0.1,0,0,0.4c0,0,0,0.2,0.2,0l0.1,0c0,0,0.3,0.3,0.6-0.1c0,0,0.3-0.3,0.1-0.6
			c0,0-0.2-0.2-0.4-0.4c0,0-0.3-0.1-0.3-0.3c0,0,0.1-0.4,0.4-0.2c0,0,0.1,0.1,0.2,0.2c0,0,0.1,0,0.1-0.2l0-0.2c0,0,0-0.1-0.2,0
			C-91.4,77.4-91.6,77.4-91.6,77.4"/>
		<path class="st3" d="M-93.1,77.1c0.1,0.1,0.1,0.2,0.1,0.2c0.2,0.6,0.5,1.6,0.5,1.6c0.1,0.1,0.2,0.2,0.2,0.2c0.2,0.1,0,0.1,0,0.1
			c-0.1,0-0.4,0-0.4,0c-0.2,0-0.1-0.1-0.1-0.1c0.1-0.1,0-0.3,0-0.3c0-0.1-0.1-0.3-0.1-0.3c0,0-0.1,0.1-0.1,0.1s-0.1,0-0.2,0
			c0,0-0.1-0.1-0.1-0.1c-0.1,0-0.2,0.4-0.2,0.4c0.1,0.3,0,0.3,0,0.3c-0.1,0.1-0.3,0-0.3,0c-0.1,0,0-0.1,0-0.1c0.1,0,0.2-0.2,0.2-0.2
			c0.1-0.1,0.5-1.7,0.5-1.7C-93.2,77.2-93.2,77-93.1,77.1 M-93.3,77.9c0,0.1-0.1,0.4-0.1,0.4l0.1,0.1c0,0,0.2,0,0.3,0
			s0.1-0.1,0.1-0.1c0-0.1-0.1-0.4-0.1-0.4l-0.1-0.1L-93.3,77.9z"/>
		<path class="st3" d="M-96.5,74.2c0,0-0.1,0.4-0.7,0l-2.1,0c0,0-0.3,0.1-0.3-0.2c0,0,0-0.6,0-0.6c0,0,0-0.2-0.3-0.2
			c0,0-0.4,0-0.4-0.3c0,0-0.1-0.4,0.5-0.4c0,0,0.2,0.1,0.2-0.1c0,0,0-1.6,0-1.7c0,0,0.1-0.1-0.2-0.2c0,0-0.4,0.1-0.5-0.2
			c0,0,0-0.4,0.2-0.4c0,0,0.3,0,0.4-0.1c0,0,0.1,0,0.1-0.2l0-0.5c0,0,0-0.1,0.2-0.1c0,0,0.4,0,0.4,0c0,0,0.1-0.1,0.1-0.2
			c0,0,0.2,0,0.2,0c0,0,0.3,0.2,1.4,0.1c0,0,0.2,0,0.2,0c0,0,0.2,0.2,0.3,0c0,0,0.2,0,0.7,0c0,0,0.6,0.2,1-0.2l0.1,0
			c0,0,0.2,0.3,0.3,0.2c0,0,0.4,0,0.4,0c0,0,0.1,0.2,0.1,0.7c0,0-0.1,0.2,0.3,0.2c0,0,0.4-0.1,0.4,0.3c0,0,0.1,0.4-0.6,0.4
			c0,0-0.1,0.1-0.1,0.2c0,0,0,1.4,0,1.5c0,0,0,0.2,0.3,0.2c0,0,0.4,0,0.4,0.3c0,0,0,0.5-0.5,0.4c0,0-0.2,0-0.2,0.1l0,0.6
			c0,0,0,0.3-0.3,0.2c0,0-1.9,0-2.1,0C-96.4,74.1-96.5,74.1-96.5,74.2"/>
		<path class="st5" d="M-96.5,74.2c0,0-0.1,0.4-0.7,0l-2.1,0c0,0-0.3,0.1-0.3-0.2c0,0,0-0.6,0-0.6c0,0,0-0.2-0.3-0.2
			c0,0-0.4,0-0.4-0.3c0,0-0.1-0.4,0.5-0.4c0,0,0.2,0.1,0.2-0.1c0,0,0-1.6,0-1.7c0,0,0.1-0.1-0.2-0.2c0,0-0.4,0.1-0.5-0.2
			c0,0,0-0.4,0.2-0.4c0,0,0.3,0,0.4-0.1c0,0,0.1,0,0.1-0.2l0-0.5c0,0,0-0.1,0.2-0.1c0,0,0.4,0,0.4,0c0,0,0.1-0.1,0.1-0.2
			c0,0,0.2,0,0.2,0c0,0,0.3,0.2,1.4,0.1c0,0,0.2,0,0.2,0c0,0,0.2,0.2,0.3,0c0,0,0.2,0,0.7,0c0,0,0.6,0.2,1-0.2l0.1,0
			c0,0,0.2,0.3,0.3,0.2c0,0,0.4,0,0.4,0c0,0,0.1,0.2,0.1,0.7c0,0-0.1,0.2,0.3,0.2c0,0,0.4-0.1,0.4,0.3c0,0,0.1,0.4-0.6,0.4
			c0,0-0.1,0.1-0.1,0.2c0,0,0,1.4,0,1.5c0,0,0,0.2,0.3,0.2c0,0,0.4,0,0.4,0.3c0,0,0,0.5-0.5,0.4c0,0-0.2,0-0.2,0.1l0,0.6
			c0,0,0,0.3-0.3,0.2c0,0-1.9,0-2.1,0C-96.4,74.1-96.5,74.1-96.5,74.2z"/>
		<path class="st2" d="M-98.9,69.2c0,0,0,0.2,0,0.3c0,0.1,0,3.5,0,3.5s0,0.3-0.2,0.4c0,0-0.1,0-0.1-0.1l0-3.6
			C-99.1,69.6-99.1,69.1-98.9,69.2"/>
		<path class="st6" d="M-98.9,69.2c0,0,0,0.2,0,0.3c0,0.1,0,3.5,0,3.5s0,0.3-0.2,0.4c0,0-0.1,0-0.1-0.1l0-3.6
			C-99.1,69.6-99.1,69.1-98.9,69.2z"/>
		<path class="st2" d="M-99.3,73.4c0,0,0-3.4,0-3.5c0-0.1,0,0,0,0s0-0.6,0.1-0.8c0,0,0-0.2-0.3,0l0,0.5c0,0,0,0.3-0.3,0.3
			c0,0-0.3,0-0.4,0.1c0,0-0.1,0.3,0.2,0.2c0,0,0.4,0,0.5,0.2l0,1.8c0,0,0.1,0.3-0.2,0.3c0,0-0.4,0-0.4,0.2c0,0,0.1,0.2,0.4,0.1
			c0,0,0.3,0,0.2,0.3v0.5c0,0,0,0.2,0.2,0.2h1.9c0,0,0.1,0,0.1-0.1c0,0,0-0.1-0.2-0.1l-1.6,0C-99,73.7-99.2,73.8-99.3,73.4"/>
		<path class="st2" d="M-98.9,73.4c0,0,0,0.2,0.1,0.1h1.3l0.3,0.1c0,0,0.4-0.1,0-0.3c0,0-1.1,0-1.2,0c0,0-0.2-0.1-0.3-0.1
			C-98.7,73.3-98.8,73.2-98.9,73.4"/>
		<path class="st6" d="M-98.9,73.4c0,0,0,0.2,0.1,0.1h1.3l0.3,0.1c0,0,0.4-0.1,0-0.3c0,0-1.1,0-1.2,0c0,0-0.2-0.1-0.3-0.1
			C-98.7,73.3-98.8,73.2-98.9,73.4z"/>
		<path class="st2" d="M-96.8,73.6c0,0-0.2,0-0.2,0.3c0,0,0,0.2,0.3,0.2c0,0,0.2,0,0.2-0.3C-96.5,73.9-96.7,73.6-96.8,73.6"/>
		<path class="st2" d="M-96.6,73.5c0,0,0.1-0.1,0.2-0.1c0,0,1.2,0.1,1.5,0c0,0,0.2,0,0.2,0c0,0,0.2,0.1,0.2,0.2c0,0,0,0.1-0.2,0
			c0,0-1.4,0-1.5,0C-96.3,73.6-96.7,73.7-96.6,73.5"/>
		<path class="st6" d="M-96.6,73.5c0,0,0.1-0.1,0.2-0.1c0,0,1.2,0.1,1.5,0c0,0,0.2,0,0.2,0c0,0,0.2,0.1,0.2,0.2c0,0,0,0.1-0.2,0
			c0,0-1.4,0-1.5,0C-96.3,73.6-96.7,73.7-96.6,73.5z"/>
		<path class="st2" d="M-96.4,73.8c0,0,0-0.1,0.2-0.1l1.7,0c0,0,0.2,0.1,0.2-0.2c0,0,0.1-1.3,0.1-2.8c0-0.4,0-0.9,0-1.3
			c0,0,0-0.2-0.1-0.2c0,0,0-0.2,0.2-0.1c0,0,0.2,0,0.1,0.3l0,0.4c0,0,0,0.2,0.3,0.1c0,0,0.3,0,0.3,0.2c0,0,0.1,0.2-0.3,0.2h-0.3
			c0,0-0.1,0.1-0.1,0.2l0,1.8c0,0,0,0.3,0.3,0.3c0,0,0.3,0,0.4,0.1c0,0,0.2,0.3-0.2,0.3c0,0-0.3,0-0.3,0c0,0,0,0.1-0.1,0.6
			c0,0,0,0.3-0.2,0.3c0,0-1.7,0-1.9,0C-96.2,73.9-96.4,74-96.4,73.8"/>
		<path class="st2" d="M-98.7,69.1l0,3.9c0,0,0,0.2,0.3,0.2c0,0,0.4,0,0.4,0c0,0,0.2,0,0.8,0c0,0,0.1,0.1,0.2,0c0,0,0.1-3.2,0.1-3.8
			c0,0,0-0.3-0.2-0.3c0,0-0.9,0.1-1,0l-0.4-0.1C-98.5,69-98.7,69-98.7,69.1"/>
		<path class="st2" d="M-94.7,69.2l0,3.8c0,0,0.1,0.3,0.3,0.3c0,0,0-0.1,0-0.2l0-3.6C-94.4,69.5-94.5,68.9-94.7,69.2"/>
		<path class="st6" d="M-94.7,69.2l0,3.8c0,0,0.1,0.3,0.3,0.3c0,0,0-0.1,0-0.2l0-3.6C-94.4,69.5-94.5,68.9-94.7,69.2z"/>
		<path class="st2" d="M-96.7,69.2c0,0,0,1.8,0,1.9l0,1.5l-0.1,0.5c0,0,0.1,0.1,0.1,0c0,0,0.4-0.1,0.6-0.1c0,0,0.8,0.1,1,0
			c0,0,0.1,0.1,0.2-0.1c0,0,0-3.4,0-3.5c0,0,0-0.5,0-0.5c0,0,0-0.1-0.2,0c0,0,0,0.1-1.2,0.1C-96.2,69.1-96.7,69-96.7,69.2"/>
		<path class="st3" d="M-97.1,70.4l-0.1,0.2c0,0-0.3,1.2-0.4,1.4c0,0,0,0.2-0.2,0c0,0-0.5-1.5-0.5-1.5l-0.2-0.1c0,0-0.1-0.1,0.1-0.1
			l0.5,0c0,0,0.1,0.1,0,0.3c0,0,0,0.2,0.3,0.9c0,0,0.1,0.3,0.2,0.1l0.2-0.9l-0.1-0.3c0,0-0.1-0.1,0-0.1
			C-97.4,70.3-97.1,70.3-97.1,70.4"/>
		<path class="st3" d="M-96.4,70.6l0,1.3l0,0.1c0,0-0.1,0.2,0,0.2c0,0-0.1,0.1,0.8,0.1c0,0,0.3,0.1,0.3-0.4c0,0,0-0.2-0.2,0.1
			c0,0,0,0.2-0.5,0.1c0,0-0.1-0.1-0.1-0.2v-0.5c0,0,0-0.1,0.2-0.1c0,0,0.2,0.1,0.3,0.1c0,0,0.1-0.2,0-0.3c0,0-0.1,0-0.1,0
			c0,0-0.1,0.1-0.3,0.1c0,0-0.1-0.2,0-0.4c0,0,0-0.3,0.2-0.3c0,0,0.2,0,0.3,0.1c0,0,0.1,0.1,0.1,0l-0.1-0.2c0,0,0-0.1-0.1-0.1
			c0,0-0.4,0.1-0.5,0l-0.3,0C-96.5,70.3-96.5,70.4-96.4,70.6C-96.4,70.5-96.4,70.5-96.4,70.6"/>
	</g>
</g>
</svg>
